<?xml version="1.0" encoding="UTF-8"?>
<svg viewBox="0 0 504.11307 428.35242" xmlns="http://www.w3.org/2000/svg" xmlns:xlink="http://www.w3.org/1999/xlink">
 <defs>
  <linearGradient id="a">
   <stop stop-color="#b8b8b8" offset="0"/>
   <stop stop-color="#e3e3e3" offset=".5"/>
   <stop stop-color="#b9b9b9" offset="1"/>
  </linearGradient>
  <linearGradient id="e" x1="465.17" x2="908.63" y1="432.77" y2="275.12" gradientUnits="userSpaceOnUse">
   <stop stop-color="#867850" offset="0"/>
   <stop stop-color="#a08872" offset=".35474"/>
   <stop stop-color="#867850" offset="1"/>
  </linearGradient>
  <linearGradient id="d" x1="893.2" x2="892.4" y1="374.86" y2="379.55" gradientUnits="userSpaceOnUse" xlink:href="#a"/>
  <linearGradient id="c" x1="412.44" x2="411.64" y1="330.39" y2="335.09" gradientTransform="matrix(.90747 -.42013 .42013 .90747 384.27 248.55)" gradientUnits="userSpaceOnUse" xlink:href="#a"/>
  <linearGradient id="b" x1="412.44" x2="411.64" y1="330.39" y2="335.09" gradientTransform="matrix(-.96884 -.24771 .24771 -.96884 1228.8 801.16)" gradientUnits="userSpaceOnUse" xlink:href="#a"/>
 </defs>
 <g transform="translate(-579.79 -74.027)">
  <path d="m1050.5 235.88c3.4106 0.0725 9.0449 4.575 9.0449 4.575l-0.5321 186.56s15.669 6.8016 22.878 9.1499c2.8788 7.6335 1.5962 16.267 1.5962 16.267l-12.769-2.5416c-13.698-13.587-27.98-18.252-43.096-10.167l-12.769-2.0333s1.066-9.6281 5.3205-13.217c8.0277-1.8662 20.218-1e-5 20.218-1e-5v-184.02s6.3812-4.6542 10.109-4.575z" fill="#685b49" stroke="#30302c" stroke-width=".2"/>
  <path d="m630.82 398.97 413.52-17.231c1.429-0.0596 2.5728-1.8475 2.5672-4.009l-0.6218-241.59c-0.01-2.1646-1.1596-4.0646-2.5903-4.2603l-409.53-57.64c-3.3993 0.28087-8.9187 2.6645-8.908 5.4817l1.1993 314.35c0.0107 2.8119 1.9592 4.9948 4.3629 4.8947" fill="#736e55" stroke="#777" stroke-linejoin="round" stroke-width=".2"/>
  <path d="m636.6 399.29 413.52-17.305c1.429-0.0598 2.5728-1.8554 2.5672-4.0262l-0.6218-242.62c-0.01-2.1739-1.1596-4.0819-2.5903-4.2785l-414.11-56.89c-2.4077-0.33077-4.342 1.68-4.3313 4.5093l1.1993 315.7c0.0107 2.824 1.9592 5.0162 4.3629 4.9156" fill="url(#e)" stroke="#777" stroke-linejoin="round" stroke-width=".2"/>
  <path d="m653.93 383.37 384.32-11.556c1.4147-0.0426 2.5465-1.8831 2.5405-4.127l-0.575-217.35c-0.01-2.2471-1.1487-4.2182-2.565-4.42l-384.86-54.83c-2.3772-0.33867-4.2866 1.7397-4.2752 4.6608l1.1068 282.49c0.0114 2.9157 1.9361 5.2053 4.3095 5.134" fill="#444" stroke="#777" stroke-linejoin="round" stroke-width=".2"/>
  <path d="m878.42 372.7 30.171 3.838-0.79998 5.4618-30.018-4.881 0.64721-4.4188z" fill="url(#d)" stroke="#858585" stroke-linejoin="round" stroke-width=".1"/>
  <path d="m883.03 379.34 28.991-9.1927 1.5687 5.2925-29.291 8.1821-1.2691-4.2818z" fill="url(#c)" stroke="#858585" stroke-linejoin="round" stroke-width=".1"/>
  <path d="m924.85 384.65-28.28-11.192 2.128-5.0934 27.873 12.165-1.7216 4.1208z" fill="url(#b)" stroke="#858585" stroke-linejoin="round" stroke-width=".1"/>
  <path d="m732.12 376.09 37.614 1.597-0.50501 11.894-37.614-1.597 0.50501-11.894z" fill="#493a3d" stroke="#858585" stroke-linejoin="round" stroke-width=".1"/>
  <path d="m630.97 206.62c4.4385 0.0988 11.771 6.2317 11.771 6.2317l-0.69241 254.11s20.391 9.2646 29.774 12.463c3.7465 10.398 2.0772 22.157 2.0772 22.157l-4.9558 0.61612-11.662-4.0782c-8.9134-9.2537-22.655-15.665-33.163-17.645s-12.751-0.64802-22.14 3.3501l-5.2174 1.1423s-10.796-16.58-5.2587-21.467c10.447-2.542 26.312-1e-5 26.312-1e-5v-250.65s8.3046-6.3397 13.156-6.2317z" fill="#635348" stroke="#2a302c" stroke-width=".2"/>
  <path d="m626.28 207.31c4.4385 0.0988 11.771 6.2317 11.771 6.2317l-0.69241 254.11s20.391 9.2646 29.774 12.463c3.7465 10.398 2.0772 22.157 2.0772 22.157l-16.618-3.462c-17.827-18.507-36.413-24.862-56.085-13.848l-16.618-2.7696s1.3872-13.115 6.9241-18.003c10.447-2.542 26.312-1e-5 26.312-1e-5v-250.65s8.3046-6.3397 13.156-6.2317z" fill="#736e55" stroke="#30302c" stroke-width=".2"/>
  <path transform="translate(129.13 92.829)" d="m500.61 148.07c0 3.2505-1.705 5.8855-3.8082 5.8855s-3.8082-2.635-3.8082-5.8855 1.705-5.8855 3.8082-5.8855 3.8082 2.635 3.8082 5.8855z" fill="#635348" stroke="#2a302c" stroke-linecap="round" stroke-linejoin="round" stroke-width=".2"/>
  <path transform="rotate(1.1301)" d="m732.85 363.96 6.4327-2.5502 0.1409 12.681-6.4827 0.0139-0.0909-10.145z" fill="#685b49"/>
  <path transform="translate(129.82 97.676)" d="m917.9 283.94-7.9708-2.5171-389.73 12.585 13.424 5.0342 384.27-15.102z" fill="#685b49" stroke="#6e5739" stroke-width="3.9"/>
 </g>
</svg>
